<svg width="112.000000" height="64.000000" viewBox="0 0 112 64" fill="none" xmlns="http://www.w3.org/2000/svg" xmlns:xlink="http://www.w3.org/1999/xlink">
	<desc>
			Created with Pixso.
	</desc>
	<defs/>
	<path id="/ 05" d="M66.8 48.64L74.73 37.28L72.35 37.28L64.43 48.64L66.8 48.64ZM82.47 48.26C83.09 48.61 83.8 48.79 84.61 48.8Q85.61 48.8 86.42 48.42Q86.55 48.36 86.67 48.29C87.28 47.95 87.8 47.51 88.23 46.96C88.65 46.41 88.98 45.79 89.2 45.11C89.44 44.42 89.55 43.74 89.55 43.04Q89.55 42.12 89.23 41.11C89.03 40.42 88.72 39.8 88.31 39.24C87.89 38.67 87.37 38.21 86.75 37.84Q86.65 37.78 86.53 37.72Q85.68 37.28 84.61 37.28Q83.69 37.28 82.91 37.62Q82.73 37.7 82.56 37.8C81.95 38.14 81.44 38.58 81.01 39.14C80.58 39.68 80.25 40.3 80.02 41C79.79 41.68 79.68 42.36 79.68 43.04C79.68 43.68 79.78 44.34 79.99 45.03Q80.16 45.57 80.42 46.07Q80.65 46.49 80.93 46.88C81.35 47.44 81.86 47.9 82.47 48.26ZM96.47 41.57C96.01 41.39 95.51 41.3 94.98 41.3C94.62 41.3 94.31 41.34 94.07 41.43C93.82 41.51 93.64 41.63 93.51 41.78L93.96 39.24L98.01 39.24L98.01 37.28L92.41 37.28C92.17 38.5 91.96 39.59 91.77 40.56C91.68 40.98 91.6 41.39 91.53 41.8C91.45 42.19 91.38 42.55 91.32 42.88L91.16 43.68C91.11 43.89 91.09 44 91.09 44.04L92.97 44.04C93.15 43.76 93.39 43.54 93.7 43.38C94.01 43.22 94.34 43.14 94.68 43.14C94.94 43.14 95.19 43.19 95.41 43.28C95.64 43.37 95.83 43.5 95.99 43.67C96.16 43.83 96.29 44.02 96.37 44.26C96.47 44.48 96.52 44.73 96.52 45C96.52 45.57 96.33 46.04 95.96 46.39Q95.83 46.51 95.68 46.6Q95.2 46.9 94.55 46.9C94.07 46.9 93.61 46.78 93.16 46.53C92.72 46.29 92.35 45.96 92.04 45.54L90.81 46.82Q91 47.17 91.26 47.46Q91.7 47.94 92.31 48.28C92.96 48.63 93.7 48.8 94.53 48.8C95.14 48.8 95.7 48.71 96.21 48.53C96.73 48.34 97.17 48.07 97.54 47.73C97.91 47.39 98.2 46.98 98.41 46.52C98.62 46.05 98.73 45.52 98.73 44.95Q98.73 44.15 98.44 43.48C98.26 43.03 97.99 42.64 97.65 42.32C97.32 42 96.93 41.75 96.47 41.57ZM82.08 44.39C81.98 43.94 81.92 43.49 81.91 43.04Q81.91 42.45 82.07 41.78C82.17 41.33 82.33 40.92 82.55 40.55Q82.82 40.08 83.21 39.74Q83.3 39.67 83.39 39.6C83.74 39.36 84.14 39.24 84.61 39.24Q85.09 39.24 85.49 39.42Q85.65 39.49 85.79 39.59C86.14 39.81 86.42 40.11 86.64 40.48C86.87 40.85 87.04 41.25 87.15 41.7Q87.33 42.37 87.33 43.04Q87.33 43.65 87.17 44.32Q87.07 44.75 86.89 45.14Q86.79 45.35 86.67 45.56C86.46 45.93 86.18 46.24 85.84 46.48C85.5 46.73 85.09 46.85 84.61 46.85C84.15 46.85 83.75 46.74 83.41 46.52C83.08 46.28 82.8 45.98 82.58 45.62C82.37 45.25 82.2 44.84 82.08 44.39Z" fill="#CCCCCC" fill-opacity="1.000000" fill-rule="evenodd"/>
	<path id="02" d="M36.05 43.17C35.76 44.8 35.62 46.72 35.62 48.93L60.39 48.93L60.39 43.12L44.07 43.12C44.07 42.29 44.24 41.54 44.6 40.87C44.98 40.2 45.51 39.56 46.18 38.95C46.88 38.34 47.72 37.76 48.68 37.22C49.67 36.64 50.77 36.05 51.99 35.44C53.14 34.9 54.21 34.32 55.2 33.72C56.23 33.08 57.11 32.34 57.84 31.51C58.61 30.68 59.22 29.73 59.67 28.68C60.12 27.59 60.34 26.31 60.34 24.84C60.34 23.3 60.08 21.89 59.57 20.61C59.09 19.33 58.36 18.24 57.36 17.35C56.4 16.42 55.2 15.7 53.76 15.19Q51.65 14.42 48.87 14.42Q46.32 14.42 44.21 15.04Q42.1 15.62 40.42 16.48Q38.79 17.35 37.59 18.36C36.79 19 36.18 19.57 35.76 20.08L39.8 24.31C40.21 23.86 40.71 23.4 41.28 22.92C41.86 22.44 42.5 22 43.2 21.62C43.91 21.2 44.66 20.87 45.46 20.61C46.29 20.36 47.16 20.23 48.05 20.23C49.65 20.23 50.88 20.66 51.75 21.52C52.64 22.36 53.09 23.49 53.09 24.93Q53.09 26.58 52.35 27.77Q52.34 27.79 52.32 27.81C51.81 28.58 51.14 29.27 50.31 29.88C49.48 30.48 48.55 31.03 47.52 31.51C46.5 31.96 45.46 32.43 44.4 32.95C42.77 33.75 41.4 34.61 40.28 35.54C39.16 36.47 38.24 37.56 37.54 38.8C36.87 40.05 36.37 41.51 36.05 43.17ZM10.36 47.78C12.22 48.84 14.36 49.38 16.79 49.41C19.1 49.41 21.16 48.9 22.99 47.88C24.81 46.85 26.36 45.52 27.64 43.89C28.92 42.23 29.9 40.37 30.57 38.32C31.28 36.28 31.63 34.21 31.63 32.13Q31.63 29.35 30.67 26.32C30.06 24.28 29.13 22.4 27.88 20.71C26.64 19.01 25.08 17.62 23.23 16.53C21.37 15.41 19.23 14.85 16.79 14.85C14.52 14.85 12.48 15.36 10.65 16.39C8.83 17.41 7.28 18.76 6 20.42C4.71 22.05 3.72 23.91 3.02 25.99Q2.01 29.06 2.01 32.13L2.01 32.13Q2.01 35.01 2.92 38.08Q3.44 39.72 4.23 41.22Q4.9 42.49 5.76 43.65Q6.43 44.55 7.22 45.34Q8.62 46.74 10.36 47.78ZM9.21 36.16Q8.73 34.15 8.68 32.13Q8.68 30.36 9.16 28.34C9.48 27 9.96 25.76 10.6 24.64C11.28 23.49 12.12 22.55 13.15 21.81C14.17 21.08 15.39 20.71 16.79 20.71Q18.24 20.71 19.45 21.25Q19.92 21.47 20.35 21.76Q20.63 21.95 20.89 22.15Q22.07 23.08 22.89 24.45Q23.9 26.08 24.43 28.1C24.78 29.44 24.96 30.79 24.96 32.13Q24.96 33.96 24.48 35.97C24.16 37.28 23.66 38.52 22.99 39.67C22.35 40.79 21.52 41.72 20.49 42.45C19.47 43.19 18.24 43.56 16.79 43.56C15.42 43.56 14.22 43.22 13.2 42.55C12.2 41.84 11.37 40.95 10.7 39.86C10.06 38.74 9.56 37.51 9.21 36.16Z" fill="#333333" fill-opacity="1.000000" fill-rule="evenodd"/>
</svg>
