<svg width="122.474487" height="122.474487" viewBox="0 0 122.474 122.474" fill="none" xmlns="http://www.w3.org/2000/svg" xmlns:xlink="http://www.w3.org/1999/xlink">
	<desc>
			Created with Pixso.
	</desc>
	<defs>
		<clipPath id="clip1_1224">
			<rect id="industry 1" rx="0.000000" width="57.000000" height="57.000000" transform="translate(32.500061 29.500000)" fill="white" fill-opacity="0"/>
		</clipPath>
	</defs>
	<rect id="Rectangle 4599" x="25.881897" rx="20.000000" width="100.000000" height="100.000000" transform="rotate(15 25.881897 0.000000)" fill="#FFE8C8" fill-opacity="0.500000"/>
	<rect id="Rectangle 4598" x="11.000061" y="11.000000" rx="20.000000" width="100.000000" height="100.000000" fill="#FFE8C8" fill-opacity="1.000000"/>
	<rect id="industry 1" rx="0.000000" width="57.000000" height="57.000000" transform="translate(32.500061 29.500000)" fill="#FFFFFF" fill-opacity="0"/>
	<g clip-path="url(#clip1_1224)">
		<path id="Vector" d="M52.5 86.69L33.81 86.69C32.87 86.69 32.11 85.93 32.11 85L32.11 64.6C32.11 63.67 32.87 62.91 33.81 62.91L52.5 62.91C53.44 62.91 54.2 63.67 54.2 64.6L54.2 85C54.2 85.93 53.44 86.69 52.5 86.69Z" fill="#FB9333" fill-opacity="1.000000" fill-rule="nonzero"/>
		<path id="Vector" d="M52.5 62.91L42.3 62.91L42.3 86.69L52.5 86.69C53.44 86.69 54.2 85.93 54.2 85L54.2 64.6C54.2 63.67 53.44 62.91 52.5 62.91Z" fill="#FB9333" fill-opacity="1.000000" fill-rule="nonzero"/>
		<path id="Vector" d="M84.46 42.35L79.91 40.53L74.91 42.35L73.47 54.61C73.41 55.09 73.56 55.57 73.89 55.94C74.21 56.3 74.67 56.51 75.16 56.51L84.22 56.51C84.7 56.51 85.17 56.3 85.49 55.94C85.81 55.57 85.96 55.09 85.91 54.61L84.46 42.35Z" fill="#FB9333" fill-opacity="1.000000" fill-rule="nonzero"/>
		<path id="Vector" d="M85.9 54.61L84.46 42.35L79.91 40.53L79.69 40.62L79.69 56.51L84.22 56.51C84.7 56.51 85.16 56.3 85.49 55.94C85.81 55.57 85.96 55.09 85.9 54.61Z" fill="#FB9333" fill-opacity="1.000000" fill-rule="nonzero"/>
		<path id="Vector" d="M56.48 54.61C56.42 55.09 56.57 55.57 56.89 55.94C57.22 56.3 57.68 56.51 58.16 56.51L67.23 56.51C67.71 56.51 68.17 56.3 68.5 55.94C68.82 55.57 68.97 55.09 68.91 54.61L67.47 42.35L62.81 39.63L57.92 42.35L56.48 54.61Z" fill="#FB9333" fill-opacity="1.000000" fill-rule="nonzero"/>
		<path id="Vector" d="M68.91 54.61L67.47 42.35L62.81 39.63L62.69 39.69L62.69 56.51L67.23 56.51C67.71 56.51 68.17 56.3 68.5 55.94C68.82 55.57 68.97 55.09 68.91 54.61Z" fill="#FB9333" fill-opacity="1.000000" fill-rule="nonzero"/>
		<path id="Vector" d="M83.64 35.35C83.54 34.5 82.81 33.85 81.95 33.85L77.42 33.85C76.56 33.85 75.83 34.5 75.73 35.35L74.91 42.35L84.46 42.35L83.64 35.35Z" fill="#FFAC37" fill-opacity="1.000000" fill-rule="nonzero"/>
		<path id="Vector" d="M83.64 35.35C83.54 34.5 82.81 33.85 81.95 33.85L79.69 33.85L79.69 42.35L84.46 42.35L83.64 35.35Z" fill="#FFAC37" fill-opacity="1.000000" fill-rule="nonzero"/>
		<path id="Vector" d="M64.96 33.85L60.43 33.85C59.57 33.85 58.84 34.5 58.74 35.35L57.92 42.35L67.47 42.35L66.65 35.35C66.55 34.5 65.82 33.85 64.96 33.85Z" fill="#FFAC37" fill-opacity="1.000000" fill-rule="nonzero"/>
		<path id="Vector" d="M66.65 35.35C66.55 34.5 65.82 33.85 64.96 33.85L62.69 33.85L62.69 42.35L67.47 42.35L66.65 35.35Z" fill="#FFAC37" fill-opacity="1.000000" fill-rule="nonzero"/>
		<path id="Vector" d="M38.91 76.5C37.97 76.5 37.21 75.74 37.21 74.8L37.21 71.4C37.21 70.46 37.97 69.7 38.91 69.7C39.84 69.7 40.6 70.46 40.6 71.4L40.6 74.8C40.6 75.74 39.84 76.5 38.91 76.5Z" fill="#FFF8EE" fill-opacity="1.000000" fill-rule="nonzero"/>
		<path id="Vector" d="M45.7 76.5C44.76 76.5 44 75.74 44 74.8L44 71.4C44 70.46 44.76 69.7 45.7 69.7C46.64 69.7 47.4 70.46 47.4 71.4L47.4 74.8C47.4 75.74 46.64 76.5 45.7 76.5Z" fill="#FFFFFF" fill-opacity="1.000000" fill-rule="nonzero"/>
		<path id="Vector" d="M76.29 86.69L88.18 86.69C89.12 86.69 89.88 85.93 89.88 85L89.88 57.81C89.88 56.87 89.12 56.11 88.18 56.11L54.2 56.11C53.26 56.11 52.5 56.87 52.5 57.81L52.5 86.69L66.09 86.69L70.96 85.79L76.29 86.69Z" fill="#FFAC37" fill-opacity="1.000000" fill-rule="nonzero"/>
		<path id="Vector" d="M88.18 56.11L71.19 56.11L71.19 85.83L76.29 86.69L88.18 86.69C89.12 86.69 89.88 85.93 89.88 85L89.88 57.81C89.88 56.87 89.12 56.11 88.18 56.11Z" fill="#FFAC37" fill-opacity="1.000000" fill-rule="nonzero"/>
		<path id="Vector" d="M61 79.9C60.06 79.9 59.3 79.14 59.3 78.2L59.3 74.8C59.3 73.86 60.06 73.1 61 73.1C61.93 73.1 62.69 73.86 62.69 74.8L62.69 78.2C62.69 79.14 61.93 79.9 61 79.9Z" fill="#FFF8EE" fill-opacity="1.000000" fill-rule="nonzero"/>
		<path id="Vector" d="M61 69.7C60.06 69.7 59.3 68.94 59.3 68L59.3 64.6C59.3 63.67 60.06 62.91 61 62.91C61.93 62.91 62.69 63.67 62.69 64.6L62.69 68C62.69 68.94 61.93 69.7 61 69.7Z" fill="#FFF8EE" fill-opacity="1.000000" fill-rule="nonzero"/>
		<path id="Vector" d="M81.39 79.9C80.45 79.9 79.69 79.14 79.69 78.2L79.69 74.8C79.69 73.86 80.45 73.1 81.39 73.1C82.32 73.1 83.08 73.86 83.08 74.8L83.08 78.2C83.08 79.14 82.32 79.9 81.39 79.9Z" fill="#FFFFFF" fill-opacity="1.000000" fill-rule="nonzero"/>
		<path id="Vector" d="M81.39 69.7C80.45 69.7 79.69 68.94 79.69 68L79.69 64.6C79.69 63.67 80.45 62.91 81.39 62.91C82.32 62.91 83.08 63.67 83.08 64.6L83.08 68C83.08 68.94 82.32 69.7 81.39 69.7Z" fill="#FFFFFF" fill-opacity="1.000000" fill-rule="nonzero"/>
		<path id="Vector" d="M67.79 69.7C66.85 69.7 66.09 68.94 66.09 68L66.09 64.6C66.09 63.67 66.85 62.91 67.79 62.91C68.73 62.91 69.49 63.67 69.49 64.6L69.49 68C69.49 68.94 68.73 69.7 67.79 69.7Z" fill="#FFF8EE" fill-opacity="1.000000" fill-rule="nonzero"/>
		<path id="Vector" d="M74.59 69.7C73.65 69.7 72.89 68.94 72.89 68L72.89 64.6C72.89 63.67 73.65 62.91 74.59 62.91C75.53 62.91 76.29 63.67 76.29 64.6L76.29 68C76.29 68.94 75.53 69.7 74.59 69.7Z" fill="#FFFFFF" fill-opacity="1.000000" fill-rule="nonzero"/>
		<path id="Vector" d="M74.59 73.1L67.79 73.1C66.85 73.1 66.09 73.86 66.09 74.8L66.09 86.69L69.49 86.69L71.08 85.56L72.89 86.69L76.29 86.69L76.29 74.8C76.29 73.86 75.53 73.1 74.59 73.1Z" fill="#FFF8EE" fill-opacity="1.000000" fill-rule="nonzero"/>
		<path id="Vector" d="M74.59 73.1L71.19 73.1L71.19 85.63L72.89 86.69L76.29 86.69L76.29 74.8C76.29 73.86 75.53 73.1 74.59 73.1Z" fill="#FFFFFF" fill-opacity="1.000000" fill-rule="nonzero"/>
		<path id="Vector" d="M69.49 76.5L72.89 76.5L72.89 86.69L69.49 86.69L69.49 76.5Z" fill="#FFAC37" fill-opacity="1.000000" fill-rule="nonzero"/>
		<path id="Vector" d="M71.19 76.5L72.89 76.5L72.89 86.69L71.19 86.69L71.19 76.5Z" fill="#FFAC37" fill-opacity="1.000000" fill-rule="nonzero"/>
	</g>
</svg>
