<svg width="24.000000" height="24.000000" viewBox="0 0 24 24" fill="none" xmlns="http://www.w3.org/2000/svg" xmlns:xlink="http://www.w3.org/1999/xlink">
	<desc>
			Created with Pixso.
	</desc>
	<defs>
		<clipPath id="clip319_42313">
			<rect id="instagram (2) 1" rx="0.000000" width="23.000000" height="23.000000" transform="translate(0.500000 0.500000)" fill="white" fill-opacity="0"/>
		</clipPath>
	</defs>
	<rect id="instagram (2) 1" rx="0.000000" width="23.000000" height="23.000000" transform="translate(0.500000 0.500000)" fill="#FFFFFF" fill-opacity="0"/>
	<g clip-path="url(#clip319_42313)">
		<path id="Vector" d="M23.92 7.05C23.86 5.77 23.66 4.9 23.36 4.13C23.06 3.33 22.59 2.61 21.98 2.01C21.38 1.4 20.66 0.93 19.86 0.62C19.09 0.33 18.22 0.13 16.94 0.07C15.66 0.01 15.25 0 12 0C8.74 0 8.33 0.01 7.05 0.07C5.77 0.13 4.9 0.33 4.13 0.63C3.33 0.93 2.61 1.4 2.01 2.01C1.4 2.61 0.93 3.33 0.62 4.13C0.33 4.9 0.13 5.77 0.07 7.05C0.01 8.33 0 8.74 0 11.99C0 15.25 0.01 15.66 0.07 16.94C0.13 18.22 0.33 19.09 0.63 19.86C0.93 20.66 1.4 21.38 2.01 21.98C2.61 22.59 3.33 23.06 4.13 23.36C4.9 23.66 5.77 23.86 7.05 23.92C8.33 23.98 8.74 23.99 12 23.99C15.25 23.99 15.66 23.98 16.94 23.92C18.22 23.86 19.09 23.66 19.86 23.36C21.47 22.74 22.74 21.47 23.36 19.86C23.66 19.09 23.86 18.22 23.92 16.94C23.98 15.66 24 15.25 24 12C24 8.74 23.98 8.33 23.92 7.05ZM21.76 16.84C21.71 18.01 21.51 18.65 21.35 19.07C20.95 20.12 20.12 20.95 19.07 21.35C18.65 21.51 18.01 21.71 16.84 21.76C15.58 21.82 15.2 21.83 12 21.83C8.79 21.83 8.41 21.82 7.15 21.76C5.98 21.71 5.34 21.51 4.92 21.35C4.4 21.16 3.92 20.85 3.54 20.45C3.14 20.07 2.83 19.59 2.64 19.07C2.48 18.65 2.28 18.01 2.23 16.84C2.17 15.58 2.16 15.2 2.16 12C2.16 8.79 2.17 8.41 2.23 7.15C2.28 5.98 2.48 5.34 2.64 4.92C2.83 4.4 3.14 3.92 3.54 3.54C3.92 3.14 4.4 2.83 4.92 2.64C5.34 2.48 5.98 2.28 7.15 2.23C8.41 2.17 8.79 2.16 12 2.16L11.99 2.16C15.2 2.16 15.58 2.17 16.84 2.23C18.01 2.28 18.65 2.48 19.07 2.64C19.59 2.83 20.06 3.14 20.45 3.54C20.85 3.92 21.16 4.4 21.35 4.92C21.51 5.34 21.71 5.98 21.76 7.15C21.82 8.41 21.83 8.79 21.83 12C21.83 15.2 21.82 15.58 21.76 16.84Z" fill="#FB9333" fill-opacity="1.000000" fill-rule="nonzero"/>
		<path id="Vector" d="M11.99 5.83C8.59 5.83 5.83 8.59 5.83 12C5.83 15.4 8.59 18.16 11.99 18.16C15.4 18.16 18.16 15.4 18.16 12C18.16 8.59 15.4 5.83 11.99 5.83ZM11.99 16C9.79 15.99 7.99 14.2 8 12C8 9.79 9.79 8 12 8C14.2 8 15.99 9.79 15.99 12C15.99 14.2 14.2 16 11.99 16Z" fill="#FB9333" fill-opacity="1.000000" fill-rule="nonzero"/>
		<path id="Vector" d="M19.84 5.59C19.84 6.38 19.2 7.03 18.4 7.03C17.61 7.03 16.96 6.38 16.96 5.59C16.96 4.79 17.61 4.15 18.4 4.15C19.2 4.15 19.84 4.79 19.84 5.59Z" fill="#FB9333" fill-opacity="1.000000" fill-rule="nonzero"/>
	</g>
</svg>
