<svg width="24.000000" height="24.000000" viewBox="0 0 24 24" fill="none" xmlns="http://www.w3.org/2000/svg" xmlns:xlink="http://www.w3.org/1999/xlink">
	<desc>
			Created with Pixso.
	</desc>
	<defs/>
	<path id="Vector" d="M21.82 0L2.17 0C0.97 0 0 0.97 0 2.17L0 21.82C0 23.02 0.97 24 2.17 24L21.82 24C23.02 24 24 23.02 24 21.82L24 2.17C24 0.97 23.02 0 21.82 0ZM7.42 20.72C7.42 21.07 7.14 21.35 6.79 21.35L4.1 21.35C3.75 21.35 3.47 21.07 3.47 20.72L3.47 9.44C3.47 9.1 3.75 8.81 4.1 8.81L6.79 8.81C7.14 8.81 7.42 9.1 7.42 9.44L7.42 20.72ZM5.45 7.75C4.03 7.75 2.89 6.61 2.89 5.19C2.89 3.78 4.03 2.64 5.45 2.64C6.86 2.64 8 3.78 8 5.19C8 6.61 6.86 7.75 5.45 7.75ZM21.48 20.77C21.48 21.09 21.22 21.35 20.9 21.35L18.01 21.35C17.69 21.35 17.43 21.09 17.43 20.77L17.43 15.48C17.43 14.69 17.66 12.02 15.37 12.02C13.59 12.02 13.23 13.85 13.16 14.67L13.16 20.77C13.16 21.09 12.9 21.35 12.57 21.35L9.78 21.35C9.46 21.35 9.2 21.09 9.2 20.77L9.2 9.39C9.2 9.07 9.46 8.81 9.78 8.81L12.57 8.81C12.9 8.81 13.16 9.07 13.16 9.39L13.16 10.38C13.81 9.39 14.79 8.62 16.88 8.62C21.5 8.62 21.48 12.94 21.48 15.31L21.48 20.77Z" fill="#FB9333" fill-opacity="1.000000" fill-rule="nonzero"/>
</svg>
