<svg width="121.945312" height="17.531250" viewBox="0 0 121.945 17.5312" fill="none" xmlns="http://www.w3.org/2000/svg" xmlns:xlink="http://www.w3.org/1999/xlink">
	<desc>
			Created with Pixso.
	</desc>
	<defs/>
	<path id="JEZ SALAD" d="" fill="#000000" fill-opacity="1.000000" fill-rule="evenodd"/>
	<path id="JEZ SALAD" d="M57.18 11.72Q57.48 12.17 57.48 12.82Q57.48 13.33 57.25 13.71Q57.08 14.02 56.77 14.24Q56.07 14.75 54.82 14.75Q52.83 14.75 52.01 13.77Q51.44 13.09 51.44 11.92L47.91 11.92Q47.91 13.16 48.39 14.17Q48.55 14.51 48.76 14.83Q48.78 14.85 48.79 14.88Q49.64 16.1 51.23 16.81Q52.85 17.53 54.82 17.53Q57.65 17.53 59.33 16.27Q60.05 15.72 60.46 15Q61 14.05 61 12.79Q61 11.66 60.56 10.75Q60.23 10.04 59.63 9.46Q58.26 8.13 55.26 7.23Q53.63 6.73 52.79 6.17Q52.2 5.77 52.03 5.24Q51.96 5.02 51.96 4.78Q51.96 4.34 52.13 3.99Q52.31 3.62 52.67 3.34Q53.39 2.8 54.67 2.8Q56.01 2.8 56.75 3.45Q56.94 3.61 57.07 3.81Q57.49 4.39 57.49 5.27L61 5.27Q61 4.21 60.63 3.31Q60.46 2.9 60.21 2.53Q60.04 2.27 59.84 2.03Q59.11 1.18 57.99 0.66Q56.56 0 54.73 0Q52.92 0 51.46 0.6Q50 1.21 49.22 2.3Q48.9 2.74 48.71 3.23Q48.44 3.94 48.44 4.76Q48.44 5.57 48.7 6.27Q49.31 7.9 51.35 9Q52.41 9.57 54.24 10.16Q56.07 10.75 56.77 11.29Q57.02 11.47 57.18 11.72ZM66.85 13.78L73.01 13.78L74.2 17.29L77.94 17.29L71.55 0.23L68.29 0.23L61.94 17.29L65.68 17.29L66.85 13.78ZM90.51 14.47L83.05 14.47L83.05 0.23L79.53 0.23L79.53 17.29L90.51 17.29L90.51 14.47ZM96.22 13.78L102.38 13.78L103.57 17.29L107.3 17.29L100.92 0.23L97.66 0.23L91.31 17.29L95.05 17.29L96.22 13.78ZM108.9 0.23L108.9 17.29L114.18 17.29Q116.03 17.28 117.57 16.59Q117.89 16.44 118.2 16.26Q118.98 15.82 119.6 15.22Q120.41 14.44 120.96 13.39Q121.94 11.54 121.94 9.16L121.94 8.37Q121.94 6.07 121.01 4.24Q120.98 4.18 120.94 4.13Q120.33 2.98 119.43 2.15Q118.86 1.63 118.17 1.24Q117.91 1.09 117.64 0.97Q116.07 0.23 114.15 0.23L108.9 0.23ZM112.41 14.47L112.41 3.08L114.15 3.08Q115.68 3.08 116.67 3.81Q117.02 4.07 117.3 4.42Q118.38 5.76 118.38 8.36L118.38 9.26Q118.35 11.77 117.27 13.12Q116.97 13.49 116.6 13.76Q115.61 14.47 114.11 14.47L112.41 14.47ZM72.07 10.93L67.8 10.93L69.92 4.54L72.07 10.93ZM101.43 10.93L97.17 10.93L99.29 4.54L101.43 10.93Z" fill="#585858" fill-opacity="1.000000" fill-rule="evenodd"/>
	<path id="JEZ SALAD" d="M11.76 0.23L7.66 0.23L7.66 11.94Q7.66 13.08 7.2 13.72Q7.01 13.98 6.76 14.13Q6.39 14.36 5.88 14.36Q5.02 14.36 4.61 13.94Q4.56 13.89 4.52 13.83Q4.12 13.31 4.12 12.14L0 12.14Q0 14.2 0.99 15.52Q1.24 15.84 1.54 16.12Q1.57 16.14 1.59 16.16Q3.13 17.53 5.88 17.53Q7.33 17.53 8.55 16.99Q8.73 16.91 8.9 16.82Q9.69 16.41 10.28 15.79Q10.69 15.37 11 14.84Q11.14 14.62 11.25 14.38Q11.76 13.28 11.76 11.94L11.76 0.23ZM18.46 10.06L24.93 10.06L24.93 7L18.46 7L18.46 3.41L26.13 3.41L26.13 0.23L14.35 0.23L14.35 17.29L26.1 17.29L26.1 14.13L18.46 14.13L18.46 10.06ZM40.55 14.13L32.4 14.13L40.47 2.34L40.47 0.23L27.22 0.23L27.22 3.41L35.4 3.41L27.26 15.12L27.26 17.29L40.55 17.29L40.55 14.13Z" fill="#FB9333" fill-opacity="1.000000" fill-rule="evenodd"/>
</svg>
