<svg width="122.474487" height="122.474487" viewBox="0 0 122.474 122.474" fill="none" xmlns="http://www.w3.org/2000/svg" xmlns:xlink="http://www.w3.org/1999/xlink">
	<desc>
			Created with Pixso.
	</desc>
	<defs>
		<clipPath id="clip1_1217">
			<rect id="number-one 1" rx="0.000000" width="45.000000" height="45.000000" transform="translate(38.500000 38.500000)" fill="white" fill-opacity="0"/>
		</clipPath>
	</defs>
	<rect id="Rectangle 4599" x="11.000000" y="11.000000" rx="20.000000" width="100.000000" height="100.000000" fill="#FFE8C8" fill-opacity="1.000000"/>
	<rect id="Rectangle 4600" x="25.881836" rx="20.000000" width="100.000000" height="100.000000" transform="rotate(15 25.881836 0.000000)" fill="#FFE8C8" fill-opacity="0.500000"/>
	<rect id="number-one 1" rx="0.000000" width="45.000000" height="45.000000" transform="translate(38.500000 38.500000)" fill="#FFFFFF" fill-opacity="0"/>
	<g clip-path="url(#clip1_1217)">
		<path id="Vector" d="M59.01 54.89L56.23 54.89L56.23 57.66L59.01 57.66C59.77 57.66 60.39 57.04 60.39 56.27C60.39 55.51 59.77 54.89 59.01 54.89Z" fill="#FFB35C" fill-opacity="1.000000" fill-rule="nonzero"/>
		<path id="Vector" d="M59.01 64.6L56.23 64.6L56.23 67.38L59.01 67.38C59.77 67.38 60.39 66.76 60.39 65.99C60.39 65.23 59.77 64.6 59.01 64.6Z" fill="#FFB35C" fill-opacity="1.000000" fill-rule="nonzero"/>
		<path id="Vector" d="M57.62 65.99C57.62 65.23 57 64.6 56.23 64.6L55.44 64.6L55.44 57.66L56.23 57.66C57 57.66 57.62 57.04 57.62 56.27C57.62 55.51 57 54.89 56.23 54.89L55.44 54.89L55.44 51.32C55.44 50.56 54.82 49.93 54.05 49.93C53.29 49.93 52.67 50.56 52.67 51.32L52.67 54.89L45.72 54.89L45.72 51.32C45.72 50.56 45.1 49.93 44.34 49.93C43.57 49.93 42.95 50.56 42.95 51.32L42.95 54.89L39.38 54.89C38.62 54.89 38 55.51 38 56.27C38 57.04 38.62 57.66 39.38 57.66L42.95 57.66L42.95 64.6L39.38 64.6C38.62 64.6 38 65.23 38 65.99C38 66.76 38.62 67.38 39.38 67.38L42.95 67.38L42.95 70.94C42.95 71.71 43.57 72.33 44.34 72.33C45.1 72.33 45.72 71.71 45.72 70.94L45.72 67.38L52.67 67.38L52.67 70.94C52.67 71.71 53.29 72.33 54.05 72.33C54.82 72.33 55.44 71.71 55.44 70.94L55.44 67.38L56.23 67.38C57 67.38 57.62 66.76 57.62 65.99ZM52.67 64.6L45.72 64.6L45.72 57.66L52.67 57.66L52.67 64.6Z" fill="#FFAC37" fill-opacity="1.000000" fill-rule="nonzero"/>
		<path id="Vector" d="M79.83 75.67L79.83 42.16C79.83 39.86 77.97 38 75.67 38L63.17 38C60.87 38 59.01 39.86 59.01 42.16C59.01 44.46 60.87 46.33 63.17 46.33L63.17 75.67C60.87 75.67 59.01 77.53 59.01 79.83C59.01 82.13 60.87 84 63.17 84L79.83 84C82.13 84 84 82.13 84 79.83C84 77.53 82.13 75.67 79.83 75.67Z" fill="#FFAC37" fill-opacity="1.000000" fill-rule="nonzero"/>
		<path id="Vector" d="M74.28 78.58L74.28 42.3C74.28 41.53 73.66 40.91 72.89 40.91L63.17 40.91C62.4 40.91 61.78 41.53 61.78 42.3C61.78 43.07 62.4 43.69 63.17 43.69L65.95 43.69L65.95 78.58L63.17 78.58C62.4 78.58 61.78 79.2 61.78 79.97C61.78 80.74 62.4 81.36 63.17 81.36L77.05 81.36C75.52 81.36 74.28 80.11 74.28 78.58Z" fill="#FFBE40" fill-opacity="1.000000" fill-rule="nonzero"/>
	</g>
</svg>
