<svg width="26.000000" height="22.000000" viewBox="0 0 26 22" fill="none" xmlns="http://www.w3.org/2000/svg" xmlns:xlink="http://www.w3.org/1999/xlink">
	<desc>
			Created with Pixso.
	</desc>
	<defs/>
	<path id="Vector" d="M8.17 21.99C17.98 21.99 23.35 13.53 23.35 6.19C23.35 5.95 23.34 5.71 23.33 5.47C24.38 4.69 25.28 3.71 26 2.6C25.04 3.04 24.01 3.34 22.93 3.47C24.03 2.79 24.88 1.7 25.28 0.4C24.25 1.04 23.11 1.5 21.89 1.75C20.92 0.67 19.53 0 18 0C15.05 0 12.66 2.48 12.66 5.55C12.66 5.98 12.71 6.41 12.8 6.81C8.37 6.58 4.44 4.37 1.8 1.01C1.35 1.83 1.08 2.79 1.08 3.8C1.08 5.73 2.02 7.43 3.46 8.43C2.58 8.4 1.76 8.15 1.04 7.73C1.04 7.76 1.04 7.78 1.04 7.8C1.04 10.49 2.88 12.74 5.32 13.25C4.87 13.37 4.4 13.44 3.91 13.44C3.57 13.44 3.23 13.41 2.91 13.34C3.59 15.55 5.56 17.15 7.89 17.2C6.07 18.69 3.77 19.58 1.27 19.58C0.84 19.58 0.41 19.55 0 19.5C2.36 21.08 5.16 22 8.17 22L8.17 21.99Z" fill="#FB9333" fill-opacity="1.000000" fill-rule="nonzero"/>
</svg>
